<mxfile host="app.diagrams.net" modified="2023-11-02T16:19:40.565Z" agent="Mozilla/5.0 (X11; Ubuntu; Linux x86_64; rv:109.0) Gecko/20100101 Firefox/118.0" etag="j8cMGtbMj_naPFsIhdSm" version="22.0.8" type="device">
  <diagram name="Page-1" id="KlvEnKaH80MnedppGRc2">
    <mxGraphModel dx="2509" dy="1992" grid="1" gridSize="10" guides="1" tooltips="1" connect="1" arrows="1" fold="1" page="1" pageScale="1" pageWidth="850" pageHeight="1100" math="0" shadow="0">
      <root>
        <mxCell id="0" />
        <mxCell id="1" parent="0" />
        <mxCell id="5GX03P-zafsoe844LOTe-1" value="" style="rounded=1;whiteSpace=wrap;html=1;" vertex="1" parent="1">
          <mxGeometry x="-210" y="-570" width="309" height="180" as="geometry" />
        </mxCell>
        <mxCell id="5GX03P-zafsoe844LOTe-2" value="NODE (python-mesh)" style="rounded=1;whiteSpace=wrap;html=1;" vertex="1" parent="1">
          <mxGeometry x="-137.25" y="-490" width="165" height="60" as="geometry" />
        </mxCell>
        <mxCell id="5GX03P-zafsoe844LOTe-3" value="PC" style="text;html=1;strokeColor=none;fillColor=none;align=center;verticalAlign=middle;whiteSpace=wrap;rounded=0;" vertex="1" parent="1">
          <mxGeometry x="-82.25" y="-540" width="60" height="30" as="geometry" />
        </mxCell>
        <mxCell id="5GX03P-zafsoe844LOTe-4" value="RADIO (mocrocontroller)" style="rounded=1;whiteSpace=wrap;html=1;" vertex="1" parent="1">
          <mxGeometry x="195.25" y="-490" width="120" height="60" as="geometry" />
        </mxCell>
        <mxCell id="5GX03P-zafsoe844LOTe-5" value="" style="endArrow=classic;html=1;rounded=0;exitX=1;exitY=0.75;exitDx=0;exitDy=0;entryX=0;entryY=0.75;entryDx=0;entryDy=0;" edge="1" parent="1" source="5GX03P-zafsoe844LOTe-2" target="5GX03P-zafsoe844LOTe-4">
          <mxGeometry width="50" height="50" relative="1" as="geometry">
            <mxPoint x="160.25" y="-330" as="sourcePoint" />
            <mxPoint x="210.25" y="-380" as="targetPoint" />
          </mxGeometry>
        </mxCell>
        <mxCell id="5GX03P-zafsoe844LOTe-6" value="" style="endArrow=classic;html=1;rounded=0;entryX=1;entryY=0.25;entryDx=0;entryDy=0;exitX=0;exitY=0.25;exitDx=0;exitDy=0;" edge="1" parent="1" source="5GX03P-zafsoe844LOTe-4" target="5GX03P-zafsoe844LOTe-2">
          <mxGeometry width="50" height="50" relative="1" as="geometry">
            <mxPoint x="150.25" y="-310" as="sourcePoint" />
            <mxPoint x="200.25" y="-360" as="targetPoint" />
          </mxGeometry>
        </mxCell>
        <mxCell id="5GX03P-zafsoe844LOTe-7" value="TX/RX commands" style="text;html=1;strokeColor=none;fillColor=none;align=center;verticalAlign=middle;whiteSpace=wrap;rounded=0;" vertex="1" parent="1">
          <mxGeometry x="114" y="-440" width="60" height="30" as="geometry" />
        </mxCell>
        <mxCell id="5GX03P-zafsoe844LOTe-8" value="packet RECEIVED" style="text;html=1;strokeColor=none;fillColor=none;align=center;verticalAlign=middle;whiteSpace=wrap;rounded=0;" vertex="1" parent="1">
          <mxGeometry x="114" y="-510" width="60" height="30" as="geometry" />
        </mxCell>
        <mxCell id="5GX03P-zafsoe844LOTe-9" value="" style="rounded=1;whiteSpace=wrap;html=1;" vertex="1" parent="1">
          <mxGeometry x="370" y="-570" width="309" height="180" as="geometry" />
        </mxCell>
        <mxCell id="5GX03P-zafsoe844LOTe-10" value="NODE (python-mesh)" style="rounded=1;whiteSpace=wrap;html=1;" vertex="1" parent="1">
          <mxGeometry x="442.75" y="-489.99999999999994" width="165" height="60" as="geometry" />
        </mxCell>
        <mxCell id="5GX03P-zafsoe844LOTe-11" value="PC" style="text;html=1;strokeColor=none;fillColor=none;align=center;verticalAlign=middle;whiteSpace=wrap;rounded=0;" vertex="1" parent="1">
          <mxGeometry x="497.75" y="-540" width="60" height="30" as="geometry" />
        </mxCell>
        <mxCell id="5GX03P-zafsoe844LOTe-12" value="RADIO (mocrocontroller)" style="rounded=1;whiteSpace=wrap;html=1;" vertex="1" parent="1">
          <mxGeometry x="790" y="-489.99999999999994" width="120" height="60" as="geometry" />
        </mxCell>
        <mxCell id="5GX03P-zafsoe844LOTe-13" value="" style="endArrow=classic;html=1;rounded=0;exitX=1;exitY=0.75;exitDx=0;exitDy=0;entryX=0;entryY=0.75;entryDx=0;entryDy=0;" edge="1" parent="1" source="5GX03P-zafsoe844LOTe-10" target="5GX03P-zafsoe844LOTe-12">
          <mxGeometry width="50" height="50" relative="1" as="geometry">
            <mxPoint x="740.25" y="-330" as="sourcePoint" />
            <mxPoint x="790.25" y="-380" as="targetPoint" />
          </mxGeometry>
        </mxCell>
        <mxCell id="5GX03P-zafsoe844LOTe-14" value="" style="endArrow=classic;html=1;rounded=0;entryX=1;entryY=0.25;entryDx=0;entryDy=0;exitX=0;exitY=0.25;exitDx=0;exitDy=0;" edge="1" parent="1" source="5GX03P-zafsoe844LOTe-12" target="5GX03P-zafsoe844LOTe-10">
          <mxGeometry width="50" height="50" relative="1" as="geometry">
            <mxPoint x="730.25" y="-310" as="sourcePoint" />
            <mxPoint x="780.25" y="-360" as="targetPoint" />
          </mxGeometry>
        </mxCell>
        <mxCell id="5GX03P-zafsoe844LOTe-15" value="TX/RX commands" style="text;html=1;strokeColor=none;fillColor=none;align=center;verticalAlign=middle;whiteSpace=wrap;rounded=0;" vertex="1" parent="1">
          <mxGeometry x="694" y="-439.99999999999994" width="60" height="30" as="geometry" />
        </mxCell>
        <mxCell id="5GX03P-zafsoe844LOTe-16" value="packet RECEIVED" style="text;html=1;strokeColor=none;fillColor=none;align=center;verticalAlign=middle;whiteSpace=wrap;rounded=0;" vertex="1" parent="1">
          <mxGeometry x="694" y="-509.99999999999994" width="60" height="30" as="geometry" />
        </mxCell>
        <mxCell id="5GX03P-zafsoe844LOTe-17" value="" style="curved=1;endArrow=classic;html=1;rounded=0;exitX=0.25;exitY=0;exitDx=0;exitDy=0;entryX=0.75;entryY=0;entryDx=0;entryDy=0;" edge="1" parent="1" source="5GX03P-zafsoe844LOTe-12" target="5GX03P-zafsoe844LOTe-10">
          <mxGeometry width="50" height="50" relative="1" as="geometry">
            <mxPoint x="810" y="-520" as="sourcePoint" />
            <mxPoint x="860" y="-570" as="targetPoint" />
            <Array as="points">
              <mxPoint x="780" y="-520" />
              <mxPoint x="660" y="-530" />
            </Array>
          </mxGeometry>
        </mxCell>
        <mxCell id="5GX03P-zafsoe844LOTe-18" value="Event Expired" style="text;html=1;strokeColor=none;fillColor=none;align=center;verticalAlign=middle;whiteSpace=wrap;rounded=0;" vertex="1" parent="1">
          <mxGeometry x="730" y="-560" width="60" height="30" as="geometry" />
        </mxCell>
        <mxCell id="5GX03P-zafsoe844LOTe-19" value="" style="curved=1;endArrow=classic;html=1;rounded=0;exitX=0.75;exitY=1;exitDx=0;exitDy=0;entryX=0.25;entryY=1;entryDx=0;entryDy=0;" edge="1" parent="1" source="5GX03P-zafsoe844LOTe-10" target="5GX03P-zafsoe844LOTe-12">
          <mxGeometry width="50" height="50" relative="1" as="geometry">
            <mxPoint x="660" y="-310" as="sourcePoint" />
            <mxPoint x="710" y="-360" as="targetPoint" />
            <Array as="points">
              <mxPoint x="665" y="-372.45" />
              <mxPoint x="795" y="-392.45" />
            </Array>
          </mxGeometry>
        </mxCell>
        <mxCell id="5GX03P-zafsoe844LOTe-20" value="time in milliseconds until the expiration of an event" style="text;html=1;strokeColor=none;fillColor=none;align=center;verticalAlign=middle;whiteSpace=wrap;rounded=0;" vertex="1" parent="1">
          <mxGeometry x="630" y="-360" width="149" height="30" as="geometry" />
        </mxCell>
      </root>
    </mxGraphModel>
  </diagram>
</mxfile>
